<mxfile host="app.diagrams.net" modified="2021-09-17T06:14:45.005Z" agent="5.0 (Windows NT 10.0; Win64; x64) AppleWebKit/537.36 (KHTML, like Gecko) Chrome/93.0.4577.63 Safari/537.36 Edg/93.0.961.47" etag="WAG03ypFSPzq-eaoUefo" version="15.2.7" type="github" pages="3">
  <diagram id="RVnjbmVlK9y6l-0-MwZw" name="Page-1">
    <mxGraphModel dx="2061" dy="508" grid="1" gridSize="10" guides="1" tooltips="1" connect="1" arrows="1" fold="1" page="1" pageScale="1" pageWidth="827" pageHeight="1169" math="0" shadow="0">
      <root>
        <mxCell id="0" />
        <mxCell id="1" parent="0" />
        <mxCell id="_YppK3dIcmp0cmpXlI2T-1" value="&lt;b&gt;开源项目或外部项目&lt;/b&gt;" style="shape=umlFrame;whiteSpace=wrap;html=1;shadow=0;strokeColor=#9673a6;swimlaneFillColor=#E1D5E7;fillColor=#E1D5E7;width=100;height=40;" parent="1" vertex="1">
          <mxGeometry x="40" y="910" width="450" height="350" as="geometry" />
        </mxCell>
        <mxCell id="iNqxf0kTn70WOW5vYwfr-28" value="单体应用" style="shape=umlFrame;whiteSpace=wrap;html=1;fillColor=#fff2cc;strokeColor=#d6b656;shadow=0;perimeterSpacing=0;swimlaneFillColor=#D6B656;" parent="1" vertex="1">
          <mxGeometry x="540" y="10" width="210" height="230" as="geometry" />
        </mxCell>
        <mxCell id="iNqxf0kTn70WOW5vYwfr-9" value="" style="edgeStyle=orthogonalEdgeStyle;rounded=0;orthogonalLoop=1;jettySize=auto;html=1;" parent="1" source="iNqxf0kTn70WOW5vYwfr-4" target="iNqxf0kTn70WOW5vYwfr-8" edge="1">
          <mxGeometry relative="1" as="geometry" />
        </mxCell>
        <mxCell id="iNqxf0kTn70WOW5vYwfr-27" value="" style="edgeStyle=orthogonalEdgeStyle;curved=1;rounded=0;orthogonalLoop=1;jettySize=auto;html=1;" parent="1" source="iNqxf0kTn70WOW5vYwfr-8" target="iNqxf0kTn70WOW5vYwfr-26" edge="1">
          <mxGeometry relative="1" as="geometry" />
        </mxCell>
        <mxCell id="iNqxf0kTn70WOW5vYwfr-8" value="local-api" style="shape=module;align=left;spacingLeft=20;align=center;verticalAlign=top;fillColor=#dae8fc;strokeColor=#6c8ebf;" parent="1" vertex="1">
          <mxGeometry x="390" y="180" width="120" height="50" as="geometry" />
        </mxCell>
        <mxCell id="iNqxf0kTn70WOW5vYwfr-10" value="cloud-api" style="shape=module;align=left;spacingLeft=20;align=center;verticalAlign=top;fillColor=#dae8fc;strokeColor=#6c8ebf;" parent="1" vertex="1">
          <mxGeometry x="390" y="310" width="120" height="50" as="geometry" />
        </mxCell>
        <mxCell id="iNqxf0kTn70WOW5vYwfr-12" value="system-demo" style="shape=module;align=left;spacingLeft=20;align=center;verticalAlign=top;fillColor=#dae8fc;strokeColor=#6c8ebf;" parent="1" vertex="1">
          <mxGeometry x="590" y="100" width="120" height="50" as="geometry" />
        </mxCell>
        <mxCell id="iNqxf0kTn70WOW5vYwfr-25" style="edgeStyle=orthogonalEdgeStyle;curved=1;rounded=0;orthogonalLoop=1;jettySize=auto;html=1;entryX=0;entryY=0;entryDx=0;entryDy=15;entryPerimeter=0;" parent="1" source="iNqxf0kTn70WOW5vYwfr-4" target="iNqxf0kTn70WOW5vYwfr-10" edge="1">
          <mxGeometry relative="1" as="geometry" />
        </mxCell>
        <mxCell id="iNqxf0kTn70WOW5vYwfr-29" style="edgeStyle=orthogonalEdgeStyle;curved=1;rounded=0;orthogonalLoop=1;jettySize=auto;html=1;entryX=0;entryY=0;entryDx=0;entryDy=15;entryPerimeter=0;" parent="1" source="iNqxf0kTn70WOW5vYwfr-4" target="iNqxf0kTn70WOW5vYwfr-12" edge="1">
          <mxGeometry relative="1" as="geometry">
            <Array as="points">
              <mxPoint x="380" y="205" />
              <mxPoint x="380" y="115" />
            </Array>
          </mxGeometry>
        </mxCell>
        <mxCell id="iNqxf0kTn70WOW5vYwfr-4" value="base-core" style="shape=module;align=left;spacingLeft=20;align=center;verticalAlign=top;fillColor=#dae8fc;strokeColor=#6c8ebf;" parent="1" vertex="1">
          <mxGeometry x="190" y="180" width="120" height="50" as="geometry" />
        </mxCell>
        <mxCell id="iNqxf0kTn70WOW5vYwfr-26" value="system-module" style="shape=module;align=left;spacingLeft=20;align=center;verticalAlign=top;fillColor=#dae8fc;strokeColor=#6c8ebf;" parent="1" vertex="1">
          <mxGeometry x="590" y="180" width="120" height="50" as="geometry" />
        </mxCell>
        <mxCell id="iNqxf0kTn70WOW5vYwfr-30" value="单体应用,功能扩展" style="shape=module;align=left;spacingLeft=20;align=center;verticalAlign=top;fillColor=#dae8fc;strokeColor=#6c8ebf;" parent="1" vertex="1">
          <mxGeometry x="590" y="30" width="120" height="50" as="geometry" />
        </mxCell>
        <mxCell id="iNqxf0kTn70WOW5vYwfr-32" value="Use" style="endArrow=open;endSize=12;dashed=1;html=1;exitX=0.5;exitY=0;exitDx=0;exitDy=0;" parent="1" source="iNqxf0kTn70WOW5vYwfr-26" target="iNqxf0kTn70WOW5vYwfr-12" edge="1">
          <mxGeometry width="160" relative="1" as="geometry">
            <mxPoint x="690" y="170" as="sourcePoint" />
            <mxPoint x="850" y="170" as="targetPoint" />
          </mxGeometry>
        </mxCell>
        <mxCell id="iNqxf0kTn70WOW5vYwfr-36" value="" style="edgeStyle=orthogonalEdgeStyle;curved=1;rounded=0;orthogonalLoop=1;jettySize=auto;html=1;" parent="1" source="iNqxf0kTn70WOW5vYwfr-34" target="iNqxf0kTn70WOW5vYwfr-35" edge="1">
          <mxGeometry relative="1" as="geometry" />
        </mxCell>
        <mxCell id="iNqxf0kTn70WOW5vYwfr-34" value="starter-parent" style="shape=module;align=left;spacingLeft=20;align=center;verticalAlign=top;shadow=0;fillColor=#d5e8d4;strokeColor=#82b366;" parent="1" vertex="1">
          <mxGeometry x="30" y="460" width="100" height="50" as="geometry" />
        </mxCell>
        <mxCell id="iNqxf0kTn70WOW5vYwfr-40" value="" style="edgeStyle=orthogonalEdgeStyle;curved=1;rounded=0;orthogonalLoop=1;jettySize=auto;html=1;" parent="1" source="iNqxf0kTn70WOW5vYwfr-35" target="iNqxf0kTn70WOW5vYwfr-39" edge="1">
          <mxGeometry relative="1" as="geometry" />
        </mxCell>
        <mxCell id="iNqxf0kTn70WOW5vYwfr-35" value="nboot-starter" style="shape=module;align=left;spacingLeft=20;align=center;verticalAlign=top;shadow=0;fillColor=#d5e8d4;strokeColor=#82b366;" parent="1" vertex="1">
          <mxGeometry x="200" y="460" width="100" height="50" as="geometry" />
        </mxCell>
        <mxCell id="iNqxf0kTn70WOW5vYwfr-41" style="edgeStyle=orthogonalEdgeStyle;curved=1;rounded=0;orthogonalLoop=1;jettySize=auto;html=1;entryX=0;entryY=0.5;entryDx=0;entryDy=0;entryPerimeter=0;" parent="1" source="iNqxf0kTn70WOW5vYwfr-37" target="iNqxf0kTn70WOW5vYwfr-4" edge="1">
          <mxGeometry relative="1" as="geometry" />
        </mxCell>
        <mxCell id="iNqxf0kTn70WOW5vYwfr-37" value="base-parent" style="shape=module;align=left;spacingLeft=20;align=center;verticalAlign=top;fillColor=#dae8fc;strokeColor=#6c8ebf;" parent="1" vertex="1">
          <mxGeometry x="-10" y="180" width="120" height="50" as="geometry" />
        </mxCell>
        <mxCell id="6mbrUAF2wuJ8WS6vqjrd-17" value="" style="edgeStyle=orthogonalEdgeStyle;rounded=0;orthogonalLoop=1;jettySize=auto;html=1;" edge="1" parent="1" source="iNqxf0kTn70WOW5vYwfr-39" target="6mbrUAF2wuJ8WS6vqjrd-16">
          <mxGeometry relative="1" as="geometry" />
        </mxCell>
        <mxCell id="iNqxf0kTn70WOW5vYwfr-39" value="starter-parent" style="shape=module;align=left;spacingLeft=20;align=center;verticalAlign=top;shadow=0;fillColor=#d5e8d4;strokeColor=#82b366;" parent="1" vertex="1">
          <mxGeometry x="370" y="460" width="100" height="50" as="geometry" />
        </mxCell>
        <mxCell id="iNqxf0kTn70WOW5vYwfr-42" value="Use" style="endArrow=open;endSize=12;dashed=1;html=1;exitX=0.5;exitY=1;exitDx=0;exitDy=0;entryX=0.5;entryY=0;entryDx=0;entryDy=0;" parent="1" source="iNqxf0kTn70WOW5vYwfr-37" target="iNqxf0kTn70WOW5vYwfr-34" edge="1">
          <mxGeometry width="160" relative="1" as="geometry">
            <mxPoint x="50" y="280" as="sourcePoint" />
            <mxPoint x="210" y="280" as="targetPoint" />
          </mxGeometry>
        </mxCell>
        <mxCell id="_YppK3dIcmp0cmpXlI2T-11" value="«Annotation-Feature»&lt;br&gt;&lt;b&gt;Component&lt;/b&gt;" style="html=1;dropTarget=0;shadow=0;fillColor=#a20025;strokeColor=#6F0000;fontColor=#ffffff;" parent="1" vertex="1">
          <mxGeometry x="80" y="975" width="180" height="90" as="geometry" />
        </mxCell>
        <mxCell id="_YppK3dIcmp0cmpXlI2T-12" value="" style="shape=module;jettyWidth=8;jettyHeight=4;" parent="_YppK3dIcmp0cmpXlI2T-11" vertex="1">
          <mxGeometry x="1" width="20" height="20" relative="1" as="geometry">
            <mxPoint x="-27" y="7" as="offset" />
          </mxGeometry>
        </mxCell>
        <mxCell id="_YppK3dIcmp0cmpXlI2T-13" value="«Annotation-Feature»&lt;br&gt;&lt;b&gt;Component&lt;/b&gt;" style="html=1;dropTarget=0;shadow=0;fillColor=#a20025;strokeColor=#6F0000;fontColor=#ffffff;" parent="1" vertex="1">
          <mxGeometry x="80" y="1090" width="180" height="90" as="geometry" />
        </mxCell>
        <mxCell id="_YppK3dIcmp0cmpXlI2T-14" value="" style="shape=module;jettyWidth=8;jettyHeight=4;" parent="_YppK3dIcmp0cmpXlI2T-13" vertex="1">
          <mxGeometry x="1" width="20" height="20" relative="1" as="geometry">
            <mxPoint x="-27" y="7" as="offset" />
          </mxGeometry>
        </mxCell>
        <mxCell id="_YppK3dIcmp0cmpXlI2T-16" value="«Annotation-Feature»&lt;br&gt;&lt;b&gt;Component&lt;/b&gt;" style="html=1;dropTarget=0;shadow=0;fillColor=#a20025;strokeColor=#6F0000;fontColor=#ffffff;" parent="1" vertex="1">
          <mxGeometry x="280" y="975" width="180" height="90" as="geometry" />
        </mxCell>
        <mxCell id="_YppK3dIcmp0cmpXlI2T-17" value="" style="shape=module;jettyWidth=8;jettyHeight=4;" parent="_YppK3dIcmp0cmpXlI2T-16" vertex="1">
          <mxGeometry x="1" width="20" height="20" relative="1" as="geometry">
            <mxPoint x="-27" y="7" as="offset" />
          </mxGeometry>
        </mxCell>
        <mxCell id="QaY6hbD6TJU1VOFaWdfm-1" value="微服务基础依赖" style="shape=umlFrame;whiteSpace=wrap;html=1;shadow=0;strokeColor=#9673a6;swimlaneFillColor=#E1D5E7;fillColor=#E1D5E7;width=100;height=40;" vertex="1" parent="1">
          <mxGeometry x="530" y="910" width="420" height="350" as="geometry" />
        </mxCell>
        <mxCell id="QaY6hbD6TJU1VOFaWdfm-15" value="«Annotation-Feature»&lt;br&gt;&lt;b&gt;GateWay&lt;/b&gt;" style="html=1;dropTarget=0;shadow=0;fillColor=#a20025;strokeColor=#6F0000;fontColor=#ffffff;" vertex="1" parent="1">
          <mxGeometry x="600" y="975" width="180" height="90" as="geometry" />
        </mxCell>
        <mxCell id="QaY6hbD6TJU1VOFaWdfm-16" value="" style="shape=module;jettyWidth=8;jettyHeight=4;" vertex="1" parent="QaY6hbD6TJU1VOFaWdfm-15">
          <mxGeometry x="1" width="20" height="20" relative="1" as="geometry">
            <mxPoint x="-27" y="7" as="offset" />
          </mxGeometry>
        </mxCell>
        <mxCell id="6mbrUAF2wuJ8WS6vqjrd-16" value="starter-parent" style="shape=module;align=left;spacingLeft=20;align=center;verticalAlign=top;shadow=0;fillColor=#d5e8d4;strokeColor=#82b366;" vertex="1" parent="1">
          <mxGeometry x="550" y="460" width="100" height="50" as="geometry" />
        </mxCell>
      </root>
    </mxGraphModel>
  </diagram>
  <diagram id="qxYtngtDkDouG3z5863Y" name="Page-2">
    <mxGraphModel dx="1234" dy="508" grid="1" gridSize="10" guides="1" tooltips="1" connect="1" arrows="1" fold="1" page="1" pageScale="1" pageWidth="827" pageHeight="1169" math="0" shadow="0">
      <root>
        <mxCell id="lRElYvq6K1XH6ua7DoC7-0" />
        <mxCell id="lRElYvq6K1XH6ua7DoC7-1" parent="lRElYvq6K1XH6ua7DoC7-0" />
        <mxCell id="onwLBOBnA6aP2V4z8pyH-16" value="Custom层&lt;br&gt;com.sungrow.*" style="shape=umlFrame;whiteSpace=wrap;html=1;width=110;height=30;" vertex="1" parent="lRElYvq6K1XH6ua7DoC7-1">
          <mxGeometry x="30" y="560" width="960" height="330" as="geometry" />
        </mxCell>
        <mxCell id="onwLBOBnA6aP2V4z8pyH-17" value="jeecg-boot层&lt;br&gt;org.jeecg.*" style="shape=umlFrame;whiteSpace=wrap;html=1;width=80;height=30;" vertex="1" parent="lRElYvq6K1XH6ua7DoC7-1">
          <mxGeometry x="140" y="630" width="590" height="210" as="geometry" />
        </mxCell>
        <mxCell id="onwLBOBnA6aP2V4z8pyH-18" value="«Annotation»&lt;br&gt;&lt;b&gt;System-Module&lt;/b&gt;" style="html=1;dropTarget=0;shadow=0;fillColor=#E1D5E7;gradientColor=none;" vertex="1" parent="lRElYvq6K1XH6ua7DoC7-1">
          <mxGeometry x="240" y="650" width="140" height="60" as="geometry" />
        </mxCell>
        <mxCell id="onwLBOBnA6aP2V4z8pyH-19" value="" style="shape=module;jettyWidth=8;jettyHeight=4;" vertex="1" parent="onwLBOBnA6aP2V4z8pyH-18">
          <mxGeometry x="1" width="20" height="20" relative="1" as="geometry">
            <mxPoint x="-27" y="7" as="offset" />
          </mxGeometry>
        </mxCell>
        <mxCell id="onwLBOBnA6aP2V4z8pyH-20" value="«Annotation»&lt;br&gt;&lt;b&gt;Base-Core&lt;/b&gt;" style="html=1;dropTarget=0;shadow=0;fillColor=#E1D5E7;gradientColor=none;" vertex="1" parent="lRElYvq6K1XH6ua7DoC7-1">
          <mxGeometry x="170" y="750" width="140" height="60" as="geometry" />
        </mxCell>
        <mxCell id="onwLBOBnA6aP2V4z8pyH-21" value="" style="shape=module;jettyWidth=8;jettyHeight=4;" vertex="1" parent="onwLBOBnA6aP2V4z8pyH-20">
          <mxGeometry x="1" width="20" height="20" relative="1" as="geometry">
            <mxPoint x="-27" y="7" as="offset" />
          </mxGeometry>
        </mxCell>
        <mxCell id="onwLBOBnA6aP2V4z8pyH-22" value="«Annotation»&lt;br&gt;&lt;b&gt;Cloud-API&lt;/b&gt;" style="html=1;dropTarget=0;shadow=0;fillColor=#E1D5E7;gradientColor=none;" vertex="1" parent="lRElYvq6K1XH6ua7DoC7-1">
          <mxGeometry x="370" y="750" width="140" height="60" as="geometry" />
        </mxCell>
        <mxCell id="onwLBOBnA6aP2V4z8pyH-23" value="" style="shape=module;jettyWidth=8;jettyHeight=4;" vertex="1" parent="onwLBOBnA6aP2V4z8pyH-22">
          <mxGeometry x="1" width="20" height="20" relative="1" as="geometry">
            <mxPoint x="-27" y="7" as="offset" />
          </mxGeometry>
        </mxCell>
        <mxCell id="onwLBOBnA6aP2V4z8pyH-24" value="«Annotation»&lt;br&gt;&lt;b&gt;Local-API&lt;/b&gt;" style="html=1;dropTarget=0;shadow=0;fillColor=#E1D5E7;gradientColor=none;" vertex="1" parent="lRElYvq6K1XH6ua7DoC7-1">
          <mxGeometry x="560" y="750" width="140" height="60" as="geometry" />
        </mxCell>
        <mxCell id="onwLBOBnA6aP2V4z8pyH-25" value="" style="shape=module;jettyWidth=8;jettyHeight=4;" vertex="1" parent="onwLBOBnA6aP2V4z8pyH-24">
          <mxGeometry x="1" width="20" height="20" relative="1" as="geometry">
            <mxPoint x="-27" y="7" as="offset" />
          </mxGeometry>
        </mxCell>
        <mxCell id="onwLBOBnA6aP2V4z8pyH-26" value="«Annotation»&lt;br&gt;&lt;b&gt;Cloud-System-Starter&lt;/b&gt;" style="html=1;dropTarget=0;shadow=0;fillColor=#E1D5E7;gradientColor=none;" vertex="1" parent="lRElYvq6K1XH6ua7DoC7-1">
          <mxGeometry x="480" y="650" width="140" height="60" as="geometry" />
        </mxCell>
        <mxCell id="onwLBOBnA6aP2V4z8pyH-27" value="" style="shape=module;jettyWidth=8;jettyHeight=4;" vertex="1" parent="onwLBOBnA6aP2V4z8pyH-26">
          <mxGeometry x="1" width="20" height="20" relative="1" as="geometry">
            <mxPoint x="-27" y="7" as="offset" />
          </mxGeometry>
        </mxCell>
        <mxCell id="onwLBOBnA6aP2V4z8pyH-28" value="«Annotation»&lt;br&gt;&lt;b&gt;System-Demo&lt;/b&gt;" style="html=1;dropTarget=0;shadow=0;fillColor=#E1D5E7;gradientColor=none;" vertex="1" parent="lRElYvq6K1XH6ua7DoC7-1">
          <mxGeometry x="780" y="640" width="140" height="60" as="geometry" />
        </mxCell>
        <mxCell id="onwLBOBnA6aP2V4z8pyH-29" value="" style="shape=module;jettyWidth=8;jettyHeight=4;" vertex="1" parent="onwLBOBnA6aP2V4z8pyH-28">
          <mxGeometry x="1" width="20" height="20" relative="1" as="geometry">
            <mxPoint x="-27" y="7" as="offset" />
          </mxGeometry>
        </mxCell>
        <mxCell id="onwLBOBnA6aP2V4z8pyH-30" value="«Annotation»&lt;br&gt;&lt;b&gt;StationManager&lt;/b&gt;" style="html=1;dropTarget=0;shadow=0;fillColor=#fff2cc;strokeColor=#d6b656;" vertex="1" parent="lRElYvq6K1XH6ua7DoC7-1">
          <mxGeometry x="780" y="770" width="140" height="60" as="geometry" />
        </mxCell>
        <mxCell id="onwLBOBnA6aP2V4z8pyH-31" value="" style="shape=module;jettyWidth=8;jettyHeight=4;" vertex="1" parent="onwLBOBnA6aP2V4z8pyH-30">
          <mxGeometry x="1" width="20" height="20" relative="1" as="geometry">
            <mxPoint x="-27" y="7" as="offset" />
          </mxGeometry>
        </mxCell>
      </root>
    </mxGraphModel>
  </diagram>
  <diagram id="yXtimA4wK8u0X1JRjjM3" name="Page-3">
    <mxGraphModel dx="1234" dy="508" grid="1" gridSize="10" guides="1" tooltips="1" connect="1" arrows="1" fold="1" page="1" pageScale="1" pageWidth="827" pageHeight="1169" math="0" shadow="0">
      <root>
        <mxCell id="KC0yOdHvvQ9_KVZbZf1X-0" />
        <mxCell id="KC0yOdHvvQ9_KVZbZf1X-1" parent="KC0yOdHvvQ9_KVZbZf1X-0" />
        <mxCell id="KC0yOdHvvQ9_KVZbZf1X-2" value="自定义com.sungrow.*" style="shape=umlFrame;whiteSpace=wrap;html=1;width=110;height=30;" vertex="1" parent="KC0yOdHvvQ9_KVZbZf1X-1">
          <mxGeometry x="20" y="540" width="960" height="340" as="geometry" />
        </mxCell>
        <mxCell id="KC0yOdHvvQ9_KVZbZf1X-3" value="jeecg-boot&lt;br&gt;org.jeecg.*" style="shape=umlFrame;whiteSpace=wrap;html=1;width=80;height=30;" vertex="1" parent="KC0yOdHvvQ9_KVZbZf1X-1">
          <mxGeometry x="50" y="650" width="590" height="210" as="geometry" />
        </mxCell>
        <mxCell id="KC0yOdHvvQ9_KVZbZf1X-4" value="«Annotation»&lt;br&gt;&lt;b&gt;System-Module&lt;/b&gt;" style="html=1;dropTarget=0;shadow=0;fillColor=#E1D5E7;gradientColor=none;" vertex="1" parent="KC0yOdHvvQ9_KVZbZf1X-1">
          <mxGeometry x="130" y="680" width="140" height="60" as="geometry" />
        </mxCell>
        <mxCell id="KC0yOdHvvQ9_KVZbZf1X-5" value="" style="shape=module;jettyWidth=8;jettyHeight=4;" vertex="1" parent="KC0yOdHvvQ9_KVZbZf1X-4">
          <mxGeometry x="1" width="20" height="20" relative="1" as="geometry">
            <mxPoint x="-27" y="7" as="offset" />
          </mxGeometry>
        </mxCell>
        <mxCell id="KC0yOdHvvQ9_KVZbZf1X-6" value="«Annotation»&lt;br&gt;&lt;b&gt;Base-Core&lt;/b&gt;" style="html=1;dropTarget=0;shadow=0;fillColor=#E1D5E7;gradientColor=none;" vertex="1" parent="KC0yOdHvvQ9_KVZbZf1X-1">
          <mxGeometry x="90" y="780" width="140" height="60" as="geometry" />
        </mxCell>
        <mxCell id="KC0yOdHvvQ9_KVZbZf1X-7" value="" style="shape=module;jettyWidth=8;jettyHeight=4;" vertex="1" parent="KC0yOdHvvQ9_KVZbZf1X-6">
          <mxGeometry x="1" width="20" height="20" relative="1" as="geometry">
            <mxPoint x="-27" y="7" as="offset" />
          </mxGeometry>
        </mxCell>
        <mxCell id="KC0yOdHvvQ9_KVZbZf1X-8" value="«Annotation»&lt;br&gt;&lt;b&gt;Cloud-API&lt;/b&gt;" style="html=1;dropTarget=0;shadow=0;fillColor=#E1D5E7;gradientColor=none;" vertex="1" parent="KC0yOdHvvQ9_KVZbZf1X-1">
          <mxGeometry x="260" y="780" width="140" height="60" as="geometry" />
        </mxCell>
        <mxCell id="KC0yOdHvvQ9_KVZbZf1X-9" value="" style="shape=module;jettyWidth=8;jettyHeight=4;" vertex="1" parent="KC0yOdHvvQ9_KVZbZf1X-8">
          <mxGeometry x="1" width="20" height="20" relative="1" as="geometry">
            <mxPoint x="-27" y="7" as="offset" />
          </mxGeometry>
        </mxCell>
        <mxCell id="KC0yOdHvvQ9_KVZbZf1X-10" value="«Annotation»&lt;br&gt;&lt;b&gt;System-Module-Local-API&lt;/b&gt;" style="html=1;dropTarget=0;shadow=0;fillColor=#E1D5E7;gradientColor=none;" vertex="1" parent="KC0yOdHvvQ9_KVZbZf1X-1">
          <mxGeometry x="440" y="780" width="150" height="60" as="geometry" />
        </mxCell>
        <mxCell id="KC0yOdHvvQ9_KVZbZf1X-11" value="" style="shape=module;jettyWidth=8;jettyHeight=4;" vertex="1" parent="KC0yOdHvvQ9_KVZbZf1X-10">
          <mxGeometry x="1" width="20" height="20" relative="1" as="geometry">
            <mxPoint x="-27" y="7" as="offset" />
          </mxGeometry>
        </mxCell>
        <mxCell id="KC0yOdHvvQ9_KVZbZf1X-12" value="«Annotation»&lt;br&gt;&lt;b&gt;Cloud-System-Starter&lt;/b&gt;" style="html=1;dropTarget=0;shadow=0;fillColor=#E1D5E7;gradientColor=none;" vertex="1" parent="KC0yOdHvvQ9_KVZbZf1X-1">
          <mxGeometry x="300" y="680" width="140" height="60" as="geometry" />
        </mxCell>
        <mxCell id="KC0yOdHvvQ9_KVZbZf1X-13" value="" style="shape=module;jettyWidth=8;jettyHeight=4;" vertex="1" parent="KC0yOdHvvQ9_KVZbZf1X-12">
          <mxGeometry x="1" width="20" height="20" relative="1" as="geometry">
            <mxPoint x="-27" y="7" as="offset" />
          </mxGeometry>
        </mxCell>
        <mxCell id="KC0yOdHvvQ9_KVZbZf1X-14" value="«Annotation»&lt;br&gt;&lt;b&gt;System-Demo&lt;/b&gt;" style="html=1;dropTarget=0;shadow=0;fillColor=#E1D5E7;gradientColor=none;" vertex="1" parent="KC0yOdHvvQ9_KVZbZf1X-1">
          <mxGeometry x="460" y="680" width="140" height="60" as="geometry" />
        </mxCell>
        <mxCell id="KC0yOdHvvQ9_KVZbZf1X-15" value="" style="shape=module;jettyWidth=8;jettyHeight=4;" vertex="1" parent="KC0yOdHvvQ9_KVZbZf1X-14">
          <mxGeometry x="1" width="20" height="20" relative="1" as="geometry">
            <mxPoint x="-27" y="7" as="offset" />
          </mxGeometry>
        </mxCell>
        <mxCell id="KC0yOdHvvQ9_KVZbZf1X-16" value="«Annotation»&lt;br&gt;&lt;b&gt;Parent依赖管理项目&lt;/b&gt;" style="html=1;dropTarget=0;shadow=0;fillColor=#fff2cc;strokeColor=#d6b656;" vertex="1" parent="KC0yOdHvvQ9_KVZbZf1X-1">
          <mxGeometry x="140" y="570" width="140" height="60" as="geometry" />
        </mxCell>
        <mxCell id="KC0yOdHvvQ9_KVZbZf1X-17" value="" style="shape=module;jettyWidth=8;jettyHeight=4;" vertex="1" parent="KC0yOdHvvQ9_KVZbZf1X-16">
          <mxGeometry x="1" width="20" height="20" relative="1" as="geometry">
            <mxPoint x="-27" y="7" as="offset" />
          </mxGeometry>
        </mxCell>
        <mxCell id="KC0yOdHvvQ9_KVZbZf1X-18" value="«Annotation»&lt;br&gt;&lt;b&gt;SystemModule项目适配&lt;/b&gt;" style="html=1;dropTarget=0;shadow=0;fillColor=#fff2cc;strokeColor=#d6b656;" vertex="1" parent="KC0yOdHvvQ9_KVZbZf1X-1">
          <mxGeometry x="360" y="570" width="140" height="60" as="geometry" />
        </mxCell>
        <mxCell id="KC0yOdHvvQ9_KVZbZf1X-19" value="" style="shape=module;jettyWidth=8;jettyHeight=4;" vertex="1" parent="KC0yOdHvvQ9_KVZbZf1X-18">
          <mxGeometry x="1" width="20" height="20" relative="1" as="geometry">
            <mxPoint x="-27" y="7" as="offset" />
          </mxGeometry>
        </mxCell>
        <mxCell id="KC0yOdHvvQ9_KVZbZf1X-20" value="«Annotation»&lt;br&gt;&lt;b&gt;StationManager&lt;/b&gt;" style="html=1;dropTarget=0;shadow=0;fillColor=#fff2cc;strokeColor=#d6b656;" vertex="1" parent="KC0yOdHvvQ9_KVZbZf1X-1">
          <mxGeometry x="580" y="570" width="140" height="60" as="geometry" />
        </mxCell>
        <mxCell id="KC0yOdHvvQ9_KVZbZf1X-21" value="" style="shape=module;jettyWidth=8;jettyHeight=4;" vertex="1" parent="KC0yOdHvvQ9_KVZbZf1X-20">
          <mxGeometry x="1" width="20" height="20" relative="1" as="geometry">
            <mxPoint x="-27" y="7" as="offset" />
          </mxGeometry>
        </mxCell>
        <mxCell id="KC0yOdHvvQ9_KVZbZf1X-22" value="«Annotation»&lt;br&gt;&lt;b&gt;StationManager&lt;/b&gt;" style="html=1;dropTarget=0;shadow=0;fillColor=#fff2cc;strokeColor=#d6b656;" vertex="1" parent="KC0yOdHvvQ9_KVZbZf1X-1">
          <mxGeometry x="760" y="570" width="140" height="60" as="geometry" />
        </mxCell>
        <mxCell id="KC0yOdHvvQ9_KVZbZf1X-23" value="" style="shape=module;jettyWidth=8;jettyHeight=4;" vertex="1" parent="KC0yOdHvvQ9_KVZbZf1X-22">
          <mxGeometry x="1" width="20" height="20" relative="1" as="geometry">
            <mxPoint x="-27" y="7" as="offset" />
          </mxGeometry>
        </mxCell>
        <mxCell id="KC0yOdHvvQ9_KVZbZf1X-24" value="«Annotation»&lt;br&gt;&lt;b&gt;StationManager&lt;/b&gt;" style="html=1;dropTarget=0;shadow=0;fillColor=#fff2cc;strokeColor=#d6b656;" vertex="1" parent="KC0yOdHvvQ9_KVZbZf1X-1">
          <mxGeometry x="680" y="670" width="140" height="60" as="geometry" />
        </mxCell>
        <mxCell id="KC0yOdHvvQ9_KVZbZf1X-25" value="" style="shape=module;jettyWidth=8;jettyHeight=4;" vertex="1" parent="KC0yOdHvvQ9_KVZbZf1X-24">
          <mxGeometry x="1" width="20" height="20" relative="1" as="geometry">
            <mxPoint x="-27" y="7" as="offset" />
          </mxGeometry>
        </mxCell>
        <mxCell id="KC0yOdHvvQ9_KVZbZf1X-26" value="«Annotation»&lt;br&gt;&lt;b&gt;StationManager&lt;/b&gt;" style="html=1;dropTarget=0;shadow=0;fillColor=#fff2cc;strokeColor=#d6b656;" vertex="1" parent="KC0yOdHvvQ9_KVZbZf1X-1">
          <mxGeometry x="680" y="770" width="140" height="60" as="geometry" />
        </mxCell>
        <mxCell id="KC0yOdHvvQ9_KVZbZf1X-27" value="" style="shape=module;jettyWidth=8;jettyHeight=4;" vertex="1" parent="KC0yOdHvvQ9_KVZbZf1X-26">
          <mxGeometry x="1" width="20" height="20" relative="1" as="geometry">
            <mxPoint x="-27" y="7" as="offset" />
          </mxGeometry>
        </mxCell>
      </root>
    </mxGraphModel>
  </diagram>
</mxfile>
